<svg width="235" height="228" viewBox="0 0 235 228" fill="none" xmlns="http://www.w3.org/2000/svg">
<path d="M224.068 100.238L224.69 104.789L224.897 109.395C224.965 110.921 225 112.456 225 114C225 115.544 224.965 117.079 224.897 118.605L224.69 123.211L224.068 127.762C223.651 130.817 223.097 133.831 222.412 136.795L221.377 141.272L219.937 145.639C218.975 148.559 217.882 151.423 216.666 154.226L214.836 158.441L212.626 162.49C211.154 165.186 209.562 167.814 207.858 170.366L205.3 174.194L202.404 177.796C200.478 180.191 198.446 182.503 196.314 184.726L193.119 188.056L189.639 191.106C187.327 193.132 184.923 195.062 182.434 196.89L178.709 199.626L174.757 202.037C172.135 203.637 169.436 205.131 166.666 206.511L162.526 208.575L158.221 210.282C155.367 211.413 152.452 212.428 149.481 213.323L145.052 214.656L140.517 215.612C137.52 216.245 134.474 216.756 131.386 217.141L126.793 217.714L122.144 217.905C120.605 217.968 119.057 218 117.5 218C115.943 218 114.395 217.968 112.856 217.905L108.207 217.714L103.614 217.141C100.526 216.756 97.4805 216.245 94.4825 215.612L89.9478 214.656L85.5189 213.323C82.548 212.428 79.6327 211.413 76.7791 210.282L72.4742 208.576L68.3337 206.511C65.5645 205.131 62.8654 203.637 60.2428 202.037L56.2914 199.626L52.5661 196.89C50.0772 195.062 47.6734 193.132 45.3615 191.106L41.8809 188.056L38.6862 184.726C36.554 182.503 34.5217 180.191 32.5959 177.796L29.6997 174.194L27.1424 170.366C25.4377 167.814 23.8461 165.186 22.374 162.49L20.164 158.441L18.3344 154.226C17.118 151.423 16.0253 148.559 15.0626 145.639L13.6226 141.272L12.5883 136.795C11.9032 133.831 11.3489 130.817 10.9317 127.762L10.3104 123.211L10.1033 118.605C10.0347 117.079 10 115.544 10 114C10 112.456 10.0347 110.921 10.1033 109.395L10.3104 104.789L10.9317 100.238C11.3489 97.1825 11.9032 94.1693 12.5883 91.2046L13.6226 86.7283L15.0626 82.3609C16.0253 79.4413 17.118 76.577 18.3344 73.7743L20.164 69.5586L22.374 65.5103C23.8461 62.8137 25.4377 60.1862 27.1424 57.6343L29.6997 53.8062L32.5959 50.2043C34.5217 47.8093 36.554 45.497 38.6862 43.2743L41.8809 39.944L45.3615 36.8941C47.6734 34.8682 50.0772 32.938 52.5661 31.1099L56.2914 28.3738L60.2428 25.9629C62.8653 24.3628 65.5645 22.8693 68.3337 21.4887L72.4741 19.4245L76.7791 17.7184C79.6327 16.5874 82.548 15.5718 85.5189 14.6775L89.9477 13.3443L94.4825 12.3876C97.4805 11.7552 100.526 11.2436 103.614 10.8587L108.207 10.286L112.856 10.0952C114.395 10.032 115.943 10 117.5 10C119.057 10 120.605 10.032 122.144 10.0952L126.793 10.286L131.386 10.8587C134.474 11.2436 137.52 11.7552 140.517 12.3876L145.052 13.3443L149.481 14.6775C152.452 15.5718 155.367 16.5874 158.221 17.7184L162.526 19.4245L166.666 21.4887C169.436 22.8693 172.135 24.3628 174.757 25.9629L178.709 28.3738L182.434 31.1099C184.923 32.938 187.327 34.8682 189.638 36.8941L193.119 39.9439L196.314 43.2743C198.446 45.497 200.478 47.8093 202.404 50.2043L205.3 53.8062L207.858 57.6343C209.562 60.1861 211.154 62.8137 212.626 65.5103L214.836 69.5586L216.666 73.7743C217.882 76.5769 218.975 79.4413 219.937 82.3609L221.377 86.7282L222.412 91.2046C223.097 94.1693 223.651 97.1825 224.068 100.238Z" stroke="#AE34CD" stroke-width="20" stroke-linecap="square" stroke-dasharray="10 10"/>
</svg>
